<svg width="198" height="328" viewBox="0 0 198 328" fill="none" xmlns="http://www.w3.org/2000/svg">
<path d="M99.0539 112.449L95.0912 112.608C86.2074 112.608 79.3843 119.434 78.2315 128.467C77.6623 132.972 77.6407 134.421 77.511 135.964C77.3165 139.568 76.3798 141.082 72.7341 138.984C67.5205 136.044 62.5286 132.726 57.7981 129.058C30.2751 103.266 32.8688 61.0016 66.6602 37.79C74.5857 32.3763 79.2978 26.3211 77.3164 16.2435C74.5137 2.17236 62.3589 -4.19283 49.9375 2.95088C17.4718 21.6572 1.66397 50.369 0.359863 82.0002C0.373802 91.1056 1.50631 100.175 3.73184 109.004C3.76595 109.491 3.84552 109.973 3.96957 110.445C9.6399 139.236 25.9376 160.725 53.5472 174.537C59.4971 177.35 65.6716 179.66 72.0064 181.443C73.5508 181.731 74.9407 182.564 75.9242 183.79C76.9076 185.016 77.4194 186.554 77.3668 188.125C77.4423 190.123 77.659 192.112 78.0153 194.079C79.622 203.068 86.6613 208.698 96.0278 208.778H98.9098V208.605L99.0539 112.449Z" fill="#17A84B"/>
<path d="M148.005 2.98701C135.605 -4.15669 123.45 2.20849 120.676 16.2796C118.688 26.3717 123.429 32.4052 131.304 37.8261C165.016 61.0377 167.71 103.302 140.187 129.094C135.454 132.762 130.457 136.078 125.237 139.013C121.584 141.118 120.676 139.568 120.453 136C120.453 133.486 120.229 130.977 119.783 128.503C118.63 119.514 111.857 112.723 102.923 112.644L98.9604 112.485V208.597V208.778H101.972C111.375 208.778 118.392 203.061 120.021 194.072C120.373 192.107 120.584 190.12 120.655 188.125C120.604 186.551 121.118 185.012 122.104 183.785C123.09 182.557 124.483 181.724 126.03 181.436C132.361 179.656 138.531 177.346 144.474 174.53C172.055 160.646 188.338 139.208 194.052 110.445C194.146 109.926 194.21 109.451 194.268 109.004C196.501 100.176 197.634 91.1061 197.64 82.0003C196.307 50.4051 180.463 21.6933 148.005 2.98701Z" fill="#077FA2"/>
<path d="M98.182 65.7017C86.5243 65.8242 78.6276 74.0132 78.7285 85.8857C78.7285 98.5007 86.654 106.661 98.6792 106.675H99.0754V65.7449L98.182 65.7017Z" fill="#17A84B"/>
<path d="M119.401 86.001C119.346 80.6283 117.181 75.4926 113.375 71.7028C109.568 67.913 104.424 65.773 99.0537 65.7449V106.697C101.745 106.679 104.406 106.131 106.885 105.084C109.364 104.037 111.613 102.512 113.503 100.595C115.393 98.679 116.887 96.4089 117.901 93.9146C118.914 91.4204 119.426 88.7509 119.408 86.0587L119.401 86.001Z" fill="#077FA2"/>
<path d="M41.3361 240.851V288.677H25.7704V240.851H13V227.351H54.1003V240.851H41.3361Z" fill="white"/>
<path d="M80.654 252.614L99.7509 227.345H118.99L95.1189 256.376L121.093 288.659H100.944L80.6231 262.064V288.659H65.0698V227.345H80.6231L80.654 252.614Z" fill="white"/>
<path d="M175.581 280.917C169.237 286.743 160.756 290 151.929 290C143.102 290 134.621 286.743 128.278 280.917C122.164 274.73 118.789 266.549 118.853 258.067C118.853 249.89 121.908 241.244 128.278 235.099C134.616 229.263 143.099 226 151.929 226C160.759 226 169.242 229.263 175.581 235.099C181.963 241.244 184.999 249.89 184.999 258.067C185.063 266.548 181.691 274.728 175.581 280.917ZM139.786 246.286C136.652 249.583 134.95 253.885 135.025 258.325C134.972 262.567 136.683 266.659 139.786 269.712C141.345 271.279 143.229 272.521 145.32 273.361C147.411 274.2 149.662 274.619 151.932 274.59C154.182 274.65 156.42 274.255 158.497 273.431C160.574 272.607 162.443 271.374 163.979 269.812C167.055 266.597 168.771 262.416 168.797 258.073C168.803 253.716 167.066 249.52 163.936 246.333C160.752 243.269 156.423 241.521 151.889 241.467C149.633 241.446 147.397 241.861 145.316 242.688C143.235 243.514 141.354 244.735 139.786 246.275V246.286Z" fill="white"/>
<path d="M47.7513 304.027V321.643H44.3719V304.027H38.8218V301.203H53.209V304.027H47.7513Z" fill="white"/>
<path d="M53.27 315.052C53.2646 314.109 53.4534 313.175 53.8251 312.307C54.5923 310.563 56.029 309.189 57.8212 308.486C59.6452 307.773 61.6767 307.773 63.5008 308.486C65.3002 309.215 66.7433 310.601 67.5277 312.355C67.8921 313.209 68.0787 314.126 68.0766 315.052C68.0844 315.996 67.8999 316.932 67.5339 317.804C67.1661 318.663 66.6223 319.439 65.9366 320.082C65.2258 320.762 64.3882 321.3 63.4699 321.667C61.6581 322.388 59.633 322.388 57.8212 321.667C56.9265 321.311 56.113 320.782 55.4284 320.112C54.739 319.451 54.188 318.662 53.8066 317.792C53.441 316.924 53.2585 315.992 53.27 315.052ZM64.8328 315.052C64.8514 313.893 64.4087 312.772 63.5995 311.93C63.2246 311.528 62.769 311.207 62.2615 310.987C61.7541 310.768 61.2059 310.654 60.6517 310.654C60.0975 310.654 59.5493 310.768 59.0419 310.987C58.5345 311.207 58.0788 311.528 57.7039 311.93C56.9213 312.788 56.4884 313.901 56.4884 315.055C56.4884 316.209 56.9213 317.322 57.7039 318.181C58.0783 318.583 58.5334 318.903 59.0403 319.123C59.5472 319.343 60.0949 319.456 60.6486 319.456C61.2024 319.456 61.75 319.343 62.2569 319.123C62.7638 318.903 63.2189 318.583 63.5933 318.181C64.402 317.345 64.8468 316.231 64.8328 315.077V315.052Z" fill="white"/>
<path d="M71.3452 321.661V300H74.4286V313.904L80.059 308.437H83.8639L77.7587 314.281L84.4436 321.686H80.4722L74.4286 314.852V321.686L71.3452 321.661Z" fill="white"/>
<path d="M84.7645 315.052C84.758 314.109 84.9491 313.174 85.3257 312.307C85.6991 311.44 86.2466 310.657 86.9352 310.004C87.6191 309.348 88.4281 308.832 89.3156 308.486C91.1418 307.773 93.1753 307.773 95.0014 308.486C95.901 308.843 96.7188 309.373 97.4065 310.047C98.0963 310.702 98.6457 311.487 99.0222 312.355C99.3914 313.208 99.5803 314.125 99.5772 315.052C99.5829 315.996 99.3963 316.932 99.0283 317.804C98.6632 318.665 98.1192 319.441 97.4312 320.082C96.7214 320.763 95.8835 321.302 94.9644 321.667C94.0636 322.028 93.1 322.211 92.1277 322.208C91.1656 322.209 90.2125 322.026 89.3218 321.667C87.5204 320.943 86.0792 319.551 85.3072 317.792C84.9397 316.924 84.7551 315.992 84.7645 315.052ZM96.3273 315.052C96.3485 313.892 95.9054 312.771 95.0939 311.93C94.719 311.528 94.2635 311.207 93.7561 310.987C93.2486 310.768 92.7004 310.654 92.1462 310.654C91.5919 310.654 91.0438 310.768 90.5363 310.987C90.0289 311.207 89.5734 311.528 89.1985 311.93C88.4196 312.79 87.9892 313.903 87.9892 315.055C87.9892 316.208 88.4196 317.32 89.1985 318.181C89.5728 318.583 90.0278 318.904 90.5348 319.123C91.0417 319.343 91.5894 319.456 92.1432 319.456C92.6969 319.456 93.2446 319.343 93.7515 319.123C94.2584 318.904 94.7134 318.583 95.0877 318.181C95.9032 317.348 96.3548 316.234 96.3458 315.077L96.3273 315.052Z" fill="white"/>
<path d="M112.885 312.185C112.423 311.686 111.86 311.286 111.232 311.013C110.589 310.741 109.897 310.602 109.197 310.606C108.634 310.583 108.073 310.68 107.552 310.889C107.03 311.099 106.561 311.417 106.175 311.821C105.438 312.737 105.037 313.871 105.037 315.04C105.037 316.209 105.438 317.344 106.175 318.26C106.589 318.663 107.083 318.976 107.627 319.179C108.171 319.382 108.752 319.47 109.333 319.438C110.022 319.449 110.704 319.308 111.331 319.025C111.939 318.733 112.469 318.305 112.879 317.774V321.267C112.3 321.591 111.677 321.832 111.029 321.983C110.352 322.145 109.658 322.224 108.963 322.22C108.011 322.256 107.062 322.097 106.175 321.756C105.288 321.414 104.482 320.896 103.807 320.234C103.14 319.553 102.62 318.746 102.277 317.862C101.935 316.978 101.778 316.035 101.815 315.089C101.774 314.134 101.937 313.181 102.293 312.292C102.649 311.402 103.19 310.596 103.881 309.926C104.604 309.263 105.453 308.748 106.379 308.411C107.306 308.075 108.291 307.922 109.277 307.964C109.927 307.957 110.574 308.027 111.207 308.17C111.782 308.296 112.337 308.501 112.854 308.778L112.885 312.185Z" fill="white"/>
<path d="M119.114 310.551C119.356 309.794 119.812 309.12 120.427 308.607C121.009 308.184 121.721 307.97 122.444 308C122.878 308.002 123.31 308.053 123.732 308.152C124.158 308.259 124.571 308.41 124.966 308.601L123.856 311.171C123.595 310.988 123.306 310.851 122.999 310.764C122.664 310.67 122.317 310.625 121.969 310.63C121.523 310.6 121.077 310.7 120.687 310.915C120.297 311.131 119.98 311.454 119.773 311.845C119.329 312.655 119.107 314.007 119.107 315.903V321.716H116.024V308.389H119.107L119.114 310.551Z" fill="white"/>
<path d="M130.38 327.894H127.217L130.917 320.513L125.983 308.413H129.387L131.854 315.277C131.996 315.696 132.119 316.121 132.23 316.553C132.341 316.984 132.428 317.427 132.489 317.877C132.728 317.116 133.022 316.373 133.371 315.654L133.439 315.484L136.763 308.413H140.093L130.38 327.894Z" fill="white"/>
<path d="M141.758 327.894V308.413H144.841V310.582C145.183 309.763 145.79 309.08 146.568 308.638C147.432 308.162 148.409 307.925 149.399 307.951C150.221 307.932 151.037 308.098 151.785 308.436C152.533 308.774 153.193 309.275 153.715 309.901C154.878 311.355 155.469 313.173 155.38 315.022C155.38 317.251 154.838 319.007 153.74 320.282C153.191 320.92 152.501 321.425 151.722 321.759C150.944 322.093 150.098 322.247 149.251 322.208C148.375 322.237 147.507 322.044 146.73 321.647C145.952 321.25 145.291 320.663 144.81 319.942V327.894H141.758ZM144.736 314.998C144.674 316.179 145.044 317.342 145.779 318.278C146.111 318.674 146.531 318.99 147.007 319.2C147.483 319.411 148.001 319.511 148.523 319.493C149.033 319.52 149.544 319.431 150.013 319.232C150.483 319.033 150.899 318.729 151.23 318.345C151.923 317.402 152.261 316.25 152.186 315.089C152.258 313.915 151.904 312.755 151.187 311.815C150.839 311.444 150.417 311.148 149.948 310.944C149.479 310.74 148.973 310.633 148.46 310.629C147.947 310.626 147.439 310.726 146.968 310.924C146.496 311.121 146.07 311.412 145.717 311.778C145.008 312.701 144.66 313.843 144.736 314.998Z" fill="white"/>
<path d="M159.389 321.661V311.068H157.04V308.413H159.389V303.396H162.472V308.413H164.828V311.068H162.472V321.661H159.389Z" fill="white"/>
<path d="M166.487 315.052C166.48 314.109 166.671 313.174 167.048 312.307C167.421 311.44 167.969 310.657 168.657 310.004C169.341 309.348 170.15 308.832 171.038 308.486C172.864 307.773 174.897 307.773 176.724 308.486C177.623 308.843 178.441 309.373 179.129 310.047C179.819 310.702 180.368 311.487 180.744 312.355C181.114 313.208 181.302 314.125 181.299 315.052C181.305 315.996 181.118 316.932 180.751 317.804C180.385 318.665 179.841 319.441 179.153 320.082C178.444 320.763 177.606 321.302 176.687 321.667C175.786 322.028 174.822 322.211 173.85 322.208C172.888 322.209 171.935 322.026 171.044 321.667C169.243 320.943 167.801 319.551 167.029 317.792C166.662 316.924 166.477 315.992 166.487 315.052ZM178.049 315.052C178.071 313.892 177.628 312.771 176.816 311.93C176.441 311.528 175.986 311.207 175.478 310.987C174.971 310.768 174.423 310.654 173.868 310.654C173.314 310.654 172.766 310.768 172.259 310.987C171.751 311.207 171.296 311.528 170.921 311.93C170.142 312.79 169.711 313.903 169.711 315.055C169.711 316.208 170.142 317.32 170.921 318.181C171.295 318.583 171.75 318.904 172.257 319.123C172.764 319.343 173.312 319.456 173.865 319.456C174.419 319.456 174.967 319.343 175.474 319.123C175.981 318.904 176.436 318.583 176.81 318.181C177.619 317.345 178.063 316.231 178.049 315.077V315.052Z" fill="white"/>
<path d="M22.2276 316.706C22.9229 316.828 23.5126 317.188 23.9968 317.787C24.481 318.386 24.7231 319.065 24.7231 319.823C24.7231 320.47 24.5493 321.057 24.2017 321.583C23.8665 322.096 23.3761 322.506 22.7305 322.811C22.0848 323.105 21.3337 323.251 20.477 323.251H15.2998V310.508H20.235C21.1165 310.508 21.8738 310.655 22.507 310.948C23.1402 311.242 23.6181 311.639 23.941 312.14C24.2638 312.629 24.4252 313.179 24.4252 313.79C24.4252 314.524 24.2265 315.135 23.8292 315.624C23.4319 316.113 22.898 316.473 22.2276 316.706ZM17.4228 315.862H20.0487C20.744 315.862 21.2841 315.709 21.6689 315.404C22.0662 315.086 22.2649 314.634 22.2649 314.047C22.2649 313.472 22.0662 313.026 21.6689 312.709C21.2841 312.378 20.744 312.213 20.0487 312.213H17.4228V315.862ZM20.2908 321.546C21.0109 321.546 21.5758 321.375 21.9856 321.033C22.3952 320.69 22.6001 320.214 22.6001 319.603C22.6001 318.979 22.3829 318.484 21.9483 318.117C21.5138 317.751 20.9364 317.567 20.2164 317.567H17.4228V321.546H20.2908ZM36.2674 313.149L29.9727 328H27.7751L29.861 323.086L25.8197 313.149H28.1849L31.0715 320.849L34.0698 313.149H36.2674Z" fill="white"/>
</svg>
